HIERARCHY
ROOT Hips
{
	OFFSET 0.000000 0.000000 0.000000 
	CHANNELS 6 Xposition Yposition Zposition Yrotation Zrotation Xrotation 
	JOINT Lumbar
	{
		OFFSET 0.000000 0.000000 0.000000 
		CHANNELS 3 Zrotation Xrotation Yrotation
		JOINT Neck
		{
			OFFSET 0.000000 0.445665 0.000000 
			CHANNELS 3 Zrotation Xrotation Yrotation
			End Site
			{
				OFFSET 0.000000 0.227535 0.000000 
			}
		}
		JOINT RightShoulder
		{
			OFFSET 0.019635 0.377685 0.194865 
			CHANNELS 3 Zrotation Xrotation Yrotation
			JOINT RightElbow
			{
				OFFSET 0.000000 -0.243375 0.000000 
				CHANNELS 2 Zrotation Yrotation
				JOINT RightWrist
				{
					OFFSET 0.000000 -0.264825 0.000000 
					CHANNELS 2 Zrotation Xrotation
					End Site
					{
						OFFSET 0.006600 -0.176220 0.000990 
					}
				}
			}
		}
		JOINT LeftShoulder
		{
			OFFSET 0.019635 0.377685 -0.194865 
			CHANNELS 3 Zrotation Xrotation Yrotation
			JOINT LeftElbow
			{
				OFFSET 0.000000 -0.243375 0.000000 
				CHANNELS 2 Zrotation Yrotation
				JOINT LeftWrist
				{
					OFFSET 0.000000 -0.264825 0.000000 
					CHANNELS 2 Zrotation Xrotation
					End Site
					{
						OFFSET 0.006600 -0.176220 -0.000990 
					}
				}
			}
		}
	}
	JOINT RightHip
	{
		OFFSET 0.052140 -0.069960 0.075570 
		CHANNELS 3 Zrotation Xrotation Yrotation
		JOINT RightKnee
		{
			OFFSET 0.000000 -0.402270 0.000000 
			CHANNELS 1 Zrotation
			JOINT RightAnkle
			{
				OFFSET 0.000000 -0.404085 0.000000 
				CHANNELS 3 Zrotation Xrotation Yrotation
				End Site
				{
					OFFSET 0.204105 -0.089430 0.008415 
				}
			}
		}
	}
	JOINT LeftHip
	{
		OFFSET 0.052140 -0.069960 -0.075570 
		CHANNELS 3 Zrotation Xrotation Yrotation
		JOINT LeftKnee
		{
			OFFSET 0.000000 -0.402270 0.000000 
			CHANNELS 1 Zrotation
			JOINT LeftAnkle
			{
				OFFSET 0.000000 -0.404085 0.000000 
				CHANNELS 3 Zrotation Xrotation Yrotation
				End Site
				{
					OFFSET 0.204105 -0.089430 -0.008415 
				}
			}
		}
	}
}
MOTION
Frames: 11
Frame Time: 0.02
0.00035 0.00011 2e-05 21.42578 -23.43178 -6.75587 42.50492 2.93989 -4.1584 -15.76539 -0.63139 -1.38952 73.73084 -98.85506 55.63344 5.78719 102.28263 9.7363 3.23799 75.36489 92.47148 87.12505 5.78711 -62.85155 -12.10255 -4.59825 39.11622 -1.06445 -8.28433 -22.2393 -6.65812 -2.61009 -3.48147 43.13244 7.58303 3.83135 -27.44627 -6.49133 2.34173 3.34299
0.00032 8e-05 5e-05 21.43491 -23.44852 -6.76892 42.51856 2.93869 -4.16352 -15.77028 -0.64103 -1.39014 73.77074 -98.83063 55.63351 5.78716 102.28251 9.73001 3.23812 75.83823 92.45188 87.12532 5.78711 -62.82312 -12.08855 -4.51569 39.12124 -1.13191 -8.67575 -22.24304 -6.65199 -2.56301 -3.45995 43.15981 7.62375 3.95465 -27.45783 -6.48939 2.32023 3.33488
0.00028 6e-05 7e-05 21.44402 -23.46516 -6.78192 42.5321 2.93749 -4.16861 -15.77517 -0.65064 -1.39076 73.81071 -98.80625 55.63358 5.78713 102.28238 9.72371 3.23825 76.31037 92.43233 87.1256 5.78711 -62.79479 -12.07456 -4.43336 39.12619 -1.19914 -9.06589 -22.24677 -6.64589 -2.51608 -3.4385 43.18704 7.66439 4.07773 -27.46934 -6.48745 2.29879 3.32678
0.00025 4e-05 0.0001 21.45312 -23.48184 -6.79492 42.54568 2.93629 -4.17371 -15.78005 -0.66025 -1.39138 73.85051 -98.78189 55.63364 5.78711 102.28226 9.71743 3.23838 76.78229 92.41279 87.12588 5.78711 -62.76645 -12.0606 -4.35105 39.13118 -1.26639 -9.4561 -22.2505 -6.63978 -2.46914 -3.41705 43.21431 7.70499 4.20067 -27.48086 -6.48551 2.27736 3.3187
0.00021 2e-05 0.00012 21.46224 -23.49864 -6.80797 42.55939 2.9351 -4.17885 -15.78494 -0.66988 -1.392 73.89019 -98.7575 55.63371 5.78708 102.28215 9.71119 3.23851 77.25529 92.39319 87.12616 5.78711 -62.73801 -12.04664 -4.26852 39.13625 -1.33386 -9.84759 -22.25425 -6.63366 -2.42207 -3.39553 43.24174 7.74567 4.3238 -27.49242 -6.48357 2.25587 3.3106
0.00018 -0 0.00015 21.47132 -23.51496 -6.82088 42.57257 2.93386 -4.18385 -15.78979 -0.67946 -1.39262 73.93074 -98.73315 55.63378 5.78706 102.28199 9.70476 3.23866 77.72558 92.37378 87.12643 5.78711 -62.70991 -12.03259 -4.18663 39.14098 -1.40061 -10.23485 -22.25795 -6.62759 -2.37543 -3.37423 43.26857 7.78621 4.44678 -27.50384 -6.48164 2.23451 3.30252
0.00014 -3e-05 0.00018 21.48048 -23.53219 -6.83404 42.58678 2.93273 -4.18912 -15.79474 -0.68914 -1.39324 73.96946 -98.70874 55.63384 5.78703 102.28192 9.69872 3.23876 78.20084 92.354 87.12671 5.78711 -62.68116 -12.01873 -4.10353 39.14636 -1.46872 -10.63022 -22.26173 -6.62141 -2.32796 -3.35252 43.29654 7.82698 4.56987 -27.51552 -6.47968 2.21294 3.2944
0.0001 -5e-05 0.0002 21.48956 -23.54863 -6.84698 42.60007 2.9315 -4.19414 -15.79959 -0.69872 -1.39386 74.00996 -98.68438 55.63391 5.787 102.28178 9.69231 3.23891 78.67144 92.33455 87.12699 5.78711 -62.65302 -12.00469 -4.02156 39.1512 -1.53559 -11.0181 -22.26544 -6.61534 -2.28126 -3.33119 43.32353 7.86756 4.69295 -27.52697 -6.47775 2.19154 3.28632
7e-05 -7e-05 0.00023 21.49854 -23.5639 -6.85964 42.61214 2.93015 -4.19884 -15.80436 -0.70821 -1.39447 74.0523 -98.66007 55.63397 5.78698 102.28152 9.68547 3.2391 79.13692 92.31553 87.12726 5.78711 -62.62556 -11.99046 -3.94086 39.15512 -1.60091 -11.39702 -22.26906 -6.60939 -2.23549 -3.31031 43.34905 7.90785 4.81574 -27.53811 -6.47585 2.17041 3.27829
4e-05 -9e-05 0.00026 21.50811 -23.58531 -6.87385 42.63092 2.92949 -4.20533 -15.80969 -0.71832 -1.39512 74.08307 -98.63546 55.63405 5.78695 102.28182 9.68119 3.239 79.63359 92.29413 87.12755 5.78711 -62.594 -11.97743 -3.85255 39.16356 -1.67508 -11.82809 -22.2732 -6.60272 -2.18432 -3.28678 43.3822 7.94964 4.93936 -27.55093 -6.47378 2.1479 3.26998
-1e-05 -0.00011 0.00028 21.51643 -23.59415 -6.88483 42.63575 2.92734 -4.20807 -15.81376 -0.72705 -1.39569 74.13883 -98.6115 55.6341 5.78693 102.28104 9.67145 3.23957 80.06329 92.27771 87.1278 5.78711 -62.57118 -11.9618 -3.7805 39.16295 -1.73061 -12.14873 -22.27625 -6.59758 -2.1446 -3.26886 43.39978 7.98834 5.06173 -27.56031 -6.47206 2.12822 3.26224
